PathFileType	4	(X/Y/Z)	Patient4_TMGait_0pt7_01_right_40.trc.trc
DataRate	CameraRate	NumFrames	NumMarkers	Units	OrigDataRate	OrigDataStartFrame	OrigNumFrames
86.419753086420	86.419753086420	4	33	mm	86.419753086420	71	       141
Frame#	Time	Sacral			L.Shoulder			Chest			R.Shoulder			Neck			R.ASIS			L.ASIS			R.Thigh.Superior			R.Thigh.Lateral			R.Thigh.Inferior			R.Patella			L.Thigh.Superior			L.Thigh.Lateral			L.Thigh.Inferior			L.Patella			L.Shank.Superior			L.Shank.Lateral			L.Shank.Inferior			R.Shank.Superior			R.Shank.Lateral			R.Shank.Inferior			R.Heel			R.Midfoot.Superior			R.Midfoot.Lateral			R.Toe			L.Heel			L.Midfoot.Lateral			L.Midfoot.Superior			L.Toe			L.Elbow			L.Wrist			R.Elbow			R.Wrist			
		X1	Y1	Z1	X2	Y2	Z2	X3	Y3	Z3	X4	Y4	Z4	X5	Y5	Z5	X6	Y6	Z6	X7	Y7	Z7	X8	Y8	Z8	X9	Y9	Z9	X10	Y10	Z10	X11	Y11	Z11	X12	Y12	Z12	X13	Y13	Z13	X14	Y14	Z14	X15	Y15	Z15	X16	Y16	Z16	X17	Y17	Z17	X18	Y18	Z18	X19	Y19	Z19	X20	Y20	Z20	X21	Y21	Z21	X22	Y22	Z22	X23	Y23	Z23	X24	Y24	Z24	X25	Y25	Z25	X26	Y26	Z26	X27	Y27	Z27	X28	Y28	Z28	X29	Y29	Z29	X30	Y30	Z30	X31	Y31	Z31	X32	Y32	Z32	X33	Y33	Z33	

71	46.540000000000	856.142182802680	1003.804047864045	477.860545545559	1040.434812345641	1413.057130072764	270.441228527169	1157.184224488155	1337.159586407878	419.856460000192	1103.385590367443	1425.539141496065	598.188854563811	1065.968683577944	1478.029165230312	422.867739637932	1082.909933510199	928.932250182310	582.992436199005	1056.695106244208	942.607827000669	308.324644067948	1074.127612989515	715.567827289237	556.700592927964	966.496664704887	625.432001253204	617.927270298558	1023.497310232978	557.993566557688	536.882578634295	1000.695077738593	473.292023519311	539.481255658535	1134.042979196461	771.054411218747	347.312480835474	1098.490890212082	642.630855444036	263.158695625882	1200.089196922369	587.904800379687	331.263205926198	1230.898615064654	522.869577223186	326.119024503544	1214.454277132253	448.160022776688	314.044360975475	1150.195774112091	318.109041188270	261.516681047456	1236.578762847210	219.352415992800	318.121414742974	959.834546828377	390.684661337787	545.954566330547	874.179705376382	299.666225800324	609.628700548392	895.486438144183	200.288974107437	543.122467615715	738.066037235055	46.446772937238	517.285724695995	911.752072255609	96.111709149615	548.633358640446	822.722475712715	38.229314478515	589.066321414653	1030.834800255036	38.599742734730	575.173936269193	1154.316781060234	40.426709773070	353.881523316272	1230.263442511683	45.765895337110	275.901327800007	1299.834575576227	122.422975095804	299.478614294666	1434.613826877032	92.560246214105	277.407360539701	868.130845325396	1104.460528748060	186.528303458075	810.100369280019	850.471732948270	199.616208888223	1260.564112612286	1137.052088847855	714.654192844738	1437.753195511639	1261.314582439781	593.182137709065	
72	46.551571428571	857.215127925487	1001.428388982378	475.538659415901	1039.500701046123	1411.553198644341	268.427519069820	1156.483749693869	1336.256206387728	417.949349694621	1101.925175139296	1424.155310354376	596.324647874219	1064.685364814042	1476.607744158059	420.915557522935	1084.135223332911	927.215213957092	581.007530055675	1058.019859202482	940.631285885946	306.312905734211	1074.592536115255	713.628009003416	555.017384279989	966.184984381407	624.006418221920	616.323456578274	1022.860026527575	556.027466737110	535.514960128247	999.064572851430	470.935152069316	537.991860933529	1135.060988442045	767.716023912797	344.348037225879	1095.890988820126	638.762292016295	262.600273855475	1198.645913573133	584.133016289096	328.809477002854	1227.857834865525	518.557139257842	324.803884525089	1211.375274251077	443.930014894677	313.250839925830	1145.796246996780	313.941631215768	262.725565802739	1232.290128688661	215.341417338096	319.122195740203	956.906309199320	388.802178329649	544.777568686972	869.926696273609	299.266263588652	609.048338075790	889.257994061986	199.458337951712	542.721530492897	729.915611637731	46.916009719874	517.503997946642	903.709555500634	96.088756988068	548.623940286613	814.604153994933	38.403276310156	589.298159782496	1022.716509844253	38.479278818021	575.244223547987	1148.347914799851	39.054328869001	356.999989330499	1223.337343915569	42.858023388978	277.926292293903	1294.795940433446	117.508719945318	300.868518317126	1428.590345479247	84.580024779205	277.076624479714	865.948260155221	1103.914715060931	185.547563565656	804.899579659898	850.648912036901	198.933781895881	1262.695016328046	1137.558029587116	711.655009969769	1436.239435328113	1266.255114694382	589.875678394480	
73	46.563142857143	858.387225208937	999.314343063060	473.171449144626	1038.625268888908	1410.208857174609	266.261319362393	1155.870663093015	1335.605753179148	415.918761721578	1100.512466538030	1423.018837222436	594.344605075193	1063.455835740641	1475.410610479366	418.787237834660	1085.459406511367	925.651437500718	578.913989023722	1059.443796009287	938.970746287095	304.244097292939	1075.284173926288	711.845600540681	553.200024461931	966.205209123066	622.675991308807	614.599360385714	1022.655408209558	554.160096676871	534.054564078473	997.958164496445	468.547316946632	536.479831149932	1136.418343140695	764.887947906271	341.253271790078	1093.679225432845	635.459796445482	262.007698616210	1197.640901355551	580.931072140345	326.321945535290	1225.160609049366	514.652999456886	323.542031574079	1208.515125319456	440.040719675593	312.494933807225	1141.433640854392	310.354690118025	263.490418819278	1227.405695615862	211.570990534022	319.989787104862	954.318762581475	387.002056039039	543.574597824144	865.932434244201	299.087042867835	608.424338642004	883.233529973788	198.836346902916	542.361076062474	721.817015645509	47.803268830124	517.779971994375	895.825478737218	96.132058137363	548.643831168273	806.546500673355	38.778451699840	589.565793492189	1014.643038853137	38.341256116358	575.318461335033	1140.890056571753	38.175919138700	359.504241407221	1215.144897107706	40.367029658001	279.533892193041	1288.703528863311	112.732376456538	302.213618189084	1421.476836981407	76.308327754339	276.990447166100	864.618002052596	1102.976695054273	184.395936469053	800.902847875658	850.402677511495	197.953703222921	1263.799819367277	1137.526721451177	708.727672643226	1434.336625886449	1269.912675137036	586.897633694508	
74	46.574714285714	859.597127490256	997.558924628624	470.796424987811	1037.831864676331	1409.093458399214	263.974185425107	1155.368283085609	1335.232719901650	413.775559494997	1099.229714082353	1422.179020351220	592.260031510108	1062.333464807244	1474.492969924733	416.510896169410	1086.816131043906	924.300960049862	576.705131418086	1060.889249660817	937.712892324567	302.110182160838	1076.160673174193	710.292577713515	551.244974361042	966.562069048228	621.482321947313	612.757690172909	1022.911890962241	552.453182990465	532.499771974870	997.457345088989	466.157051605591	534.994441116423	1138.020017773368	762.694366307260	338.116088662860	1091.967187655238	632.898900438281	261.272090004835	1197.026047089942	578.415296939696	323.868353889168	1222.840981683438	511.352770968719	322.326812744497	1205.965697245625	436.681160482680	311.742374041943	1137.378288242524	307.479174323526	263.665783874584	1222.232192152105	208.237619769479	320.652716595647	952.122786380389	385.331951719686	542.373460339282	862.233364046356	299.196295147496	607.760628800413	877.467552054105	198.485277846342	542.055184335479	713.801439405120	49.220116177024	518.116117712105	888.158065818895	96.255491857593	548.709491278096	798.569918468338	39.408993185623	589.863133039585	1006.619643207602	38.194094437427	575.388051931353	1132.525507599655	37.706675793262	361.315657116879	1206.282511592933	38.375557564966	280.675570712794	1281.936151934236	108.415889106999	303.426508001518	1413.738280285485	68.453461231668	277.120050390439	864.133420285006	1101.721485399026	183.060083237040	798.176795177662	849.769944203758	196.646222865663	1263.872636962871	1136.919572495221	705.914409214843	1432.107751350118	1272.246460041198	584.251154726304	
